<svg xmlns="http://www.w3.org/2000/svg" viewBox="0 0 20.25 12.69">
 <path d="m8.16,5.7c1.09-.56,1.69-1.37,1.69-2.6,0-2.5-1.86-3.09-3.97-3.09H0v12.45h6.01c2.29,0,4.39-1.09,4.39-3.62,0-1.55-.74-2.71-2.25-3.13ZM2.71,2.11h2.6c.98,0,1.86.28,1.86,1.44,0,1.05-.7,1.48-1.69,1.48h-2.78v-2.92Zm2.95,8.23h-2.95v-3.45h2.99c1.23,0,1.97.53,1.97,1.79s-.91,1.65-2,1.65ZM18.25,1.86V.63h-5.03v1.23h5.03Zm2,6.22c0-2.67-1.58-4.92-4.39-4.92s-4.64,2.07-4.64,4.78,1.79,4.75,4.64,4.75c2.14,0,3.55-.98,4.22-3.02h-2.18c-.25.77-1.23,1.16-1.97,1.16-1.44,0-2.21-.84-2.21-2.29h6.5c0-.14.04-.32.04-.46Zm-6.54-1.12c.07-1.16.88-1.9,2.04-1.9,1.27,0,1.9.7,2,1.9h-4.04Z"/>
</svg>