<svg xmlns="http://www.w3.org/2000/svg" viewBox="0 0 16 16">
 <path d="m2.41,2.41c.05-.65.34-1.27.82-1.71C3.71.25,4.34,0,5,0h7.2c.5,0,.99.1,1.45.29.46.19.88.47,1.23.82.35.35.63.77.82,1.23.19.46.29.96.29,1.45v4.8c0,.66-.25,1.29-.69,1.77-.45.48-1.06.78-1.71.82-.05.65-.34,1.27-.82,1.71s-1.11.69-1.77.69h-4.07l-2.93,2.2c-.66.49-1.6.02-1.6-.8v-1.41c-.65-.05-1.26-.35-1.71-.83C.25,12.29,0,11.65,0,11v-6c0-.66.25-1.29.69-1.77.45-.48,1.06-.78,1.71-.82Zm1.21,0h7.39c.69,0,1.35.27,1.84.76.49.49.76,1.15.76,1.84v4.99c.33-.05.64-.21.86-.47.22-.25.34-.58.34-.92V3.8c0-.69-.27-1.35-.76-1.84-.49-.49-1.15-.76-1.84-.76h-7.2c-.34,0-.66.12-.92.34s-.42.53-.47.86Zm-1.01,10h1v2.2l2.93-2.2h4.47c.37,0,.73-.15.99-.41.26-.26.41-.62.41-.99v-6c0-.37-.15-.73-.41-.99-.26-.26-.62-.41-.99-.41H2.6c-.37,0-.73.15-.99.41-.26.26-.41.62-.41.99v6c0,.77.63,1.4,1.4,1.4Z"/>
</svg>