<svg xmlns="http://www.w3.org/2000/svg" viewBox="0 0 15.75 15.75">
 <path d="m7.89,3.81c-2.25,0-4.04,1.83-4.04,4.04s1.79,4.04,4.04,4.04,4.04-1.79,4.04-4.04-1.83-4.04-4.04-4.04Zm0,6.68c-1.44,0-2.64-1.16-2.64-2.64s1.16-2.6,2.64-2.6,2.6,1.16,2.6,2.6-1.16,2.64-2.6,2.64Zm5.13-6.82c0-.53-.42-.95-.95-.95s-.95.42-.95.95.42.95.95.95.95-.42.95-.95Zm2.67.95c-.07-1.27-.35-2.39-1.27-3.3C13.52.4,12.39.12,11.13.05,9.83-.02,5.92-.02,4.62.05c-1.27.07-2.36.35-3.3,1.27C.4,2.23.12,3.36.05,4.62-.02,5.92-.02,9.83.05,11.13c.07,1.27.35,2.36,1.27,3.3.95.91,2.04,1.2,3.3,1.27,1.3.07,5.2.07,6.5,0,1.27-.07,2.39-.35,3.3-1.27.91-.95,1.2-2.04,1.27-3.3.07-1.3.07-5.2,0-6.5Zm-1.69,7.87c-.25.7-.81,1.23-1.48,1.51-1.05.42-3.52.32-4.64.32s-3.62.11-4.64-.32c-.7-.28-1.23-.81-1.51-1.51-.42-1.02-.32-3.48-.32-4.64s-.11-3.59.32-4.64c.28-.67.81-1.2,1.51-1.48,1.02-.42,3.48-.32,4.64-.32s3.59-.11,4.64.32c.67.25,1.2.81,1.48,1.48.42,1.05.32,3.52.32,4.64s.11,3.62-.32,4.64Z"/>
</svg>