<svg xmlns="http://www.w3.org/2000/svg" viewBox="0 0 122.89 118.73">
 <path d="m29.22,56.55c3.57,6.43,7.67,12.6,13.02,18.24,5.34,5.67,12,10.82,20.62,15.22.64.31,1.25.31,1.78.1.82-.31,1.66-.99,2.48-1.81.64-.64,1.43-1.66,2.26-2.77,3.31-4.36,7.42-9.77,13.21-7.07.13.06.23.13.35.19l19.33,11.11c.06.03.13.1.19.13,2.55,1.75,3.6,4.46,3.63,7.52,0,3.12-1.15,6.63-2.83,9.58-2.22,3.91-5.51,6.5-9.29,8.21-3.6,1.66-7.61,2.55-11.46,3.12-6.05.89-11.71.32-17.5-1.46-5.67-1.75-11.37-4.65-17.6-8.5l-.46-.29c-2.86-1.78-5.95-3.7-8.98-5.95-11.1-8.38-22.4-20.47-29.76-33.78C2.03,57.16-1.34,45.1.5,33.6c1.02-6.3,3.72-12.03,8.44-15.82,4.11-3.31,9.64-5.13,16.81-4.49.82.06,1.56.54,1.94,1.24l12.39,20.94c1.81,2.35,2.04,4.68,1.05,7.01-.82,1.91-2.48,3.67-4.74,5.31-.67.57-1.46,1.15-2.29,1.75-2.77,2.01-5.92,4.33-4.84,7.07l-.04-.06h0ZM73.35,7.56c-.51-.04-.99-.18-1.42-.4-.45-.23-.84-.54-1.16-.91-.32-.38-.57-.81-.73-1.29-.14-.46-.2-.95-.16-1.46v-.07c.05-.49.19-.95.4-1.36l.04-.07c.22-.42.52-.79.87-1.08.37-.32.81-.57,1.29-.73.45-.15.93-.21,1.42-.18h.1c3.43.28,6.74.8,9.92,1.56,3.21.77,6.27,1.8,9.16,3.05,2.91,1.27,5.65,2.78,8.2,4.52,2.54,1.74,4.91,3.71,7.06,5.9,2.13,2.17,4.06,4.56,5.77,7.15,1.69,2.57,3.16,5.34,4.4,8.28,1.2,2.88,2.18,5.94,2.92,9.18.72,3.17,1.21,6.5,1.45,9.98v.17s.01.18.01.18c0,.46-.08.91-.23,1.33-.16.45-.4.85-.71,1.2-.31.35-.68.64-1.1.86-.39.21-.84.34-1.31.4l-.2.02h-.19c-.47,0-.92-.07-1.34-.23-.44-.16-.85-.4-1.2-.71-.37-.32-.68-.72-.9-1.17-.21-.43-.35-.92-.38-1.42-.21-3.09-.63-6.03-1.26-8.8-.63-2.83-1.48-5.5-2.52-8.01-1.04-2.52-2.29-4.88-3.72-7.06-1.45-2.21-3.08-4.23-4.88-6.07-1.82-1.85-3.81-3.51-5.97-4.98-2.17-1.48-4.51-2.76-7.01-3.84l-.04-.02c-2.48-1.07-5.11-1.95-7.88-2.61-2.76-.63-5.66-1.08-8.7-1.31h0Zm-8.32,35.66c-.51-.05-.99-.21-1.41-.43-.44-.24-.83-.56-1.13-.94-.29-.36-.52-.78-.67-1.23-.14-.42-.2-.87-.18-1.33,0-.13,0-.23.03-.35.07-.48.23-.93.45-1.32.23-.41.54-.77.9-1.06s.78-.52,1.23-.67c.42-.13.87-.2,1.34-.18l.35.03c1.49.16,2.92.42,4.3.77,1.4.36,2.73.82,3.98,1.36l.04.02c1.27.56,2.46,1.21,3.57,1.96,1.12.76,2.16,1.61,3.12,2.57.95.95,1.81,1.98,2.57,3.1.76,1.11,1.42,2.3,1.99,3.58.55,1.25,1.01,2.58,1.37,3.98.35,1.37.6,2.83.76,4.37.05.51,0,1.01-.13,1.47v.04c-.15.46-.39.89-.68,1.26v.02c-.32.38-.7.69-1.14.93-.42.23-.9.38-1.41.43h-.05c-.49.04-.97,0-1.42-.14-.48-.14-.92-.38-1.3-.69h-.01c-.38-.31-.7-.69-.94-1.14-.23-.42-.38-.9-.43-1.4v-.04c-.11-1.09-.29-2.13-.54-3.12-.25-1.01-.57-1.95-.95-2.82s-.82-1.68-1.32-2.42c-.51-.75-1.07-1.43-1.69-2.05s-1.31-1.18-2.06-1.68-1.57-.94-2.46-1.33l-.05-.02c-.87-.38-1.81-.69-2.8-.94-1.04-.29-2.11-.47-3.23-.59h0Zm4-17.22h-.1l-.13-.02c-.47-.05-.91-.19-1.3-.39-.42-.22-.79-.51-1.1-.85h0c-.32-.36-.57-.77-.73-1.23-.15-.43-.23-.89-.22-1.38v-.17l.02-.16c.05-.46.19-.9.39-1.29.22-.42.51-.8.85-1.1.37-.33.8-.58,1.28-.75.46-.16.95-.23,1.46-.2,2.66.16,5.19.5,7.58,1.01,2.4.51,4.67,1.2,6.78,2.06,2.13.87,4.12,1.92,5.96,3.14,1.82,1.21,3.5,2.6,5.01,4.17,1.5,1.55,2.84,3.27,4,5.15,1.15,1.86,2.14,3.88,2.94,6.05.78,2.12,1.4,4.4,1.84,6.84.43,2.4.69,4.93.77,7.62v.14c.01.48-.08.95-.26,1.38-.18.45-.44.85-.76,1.2-.33.36-.74.65-1.2.85-.43.2-.92.31-1.43.33h-.17c-.48,0-.93-.1-1.35-.27-.45-.18-.85-.44-1.19-.76-.36-.34-.65-.74-.86-1.2-.2-.44-.31-.92-.33-1.44-.06-2.24-.28-4.35-.63-6.34-.35-2.01-.85-3.88-1.47-5.6-.62-1.72-1.38-3.3-2.26-4.75-.89-1.46-1.91-2.77-3.05-3.96-1.16-1.19-2.44-2.26-3.85-3.19-1.42-.94-2.99-1.75-4.67-2.43l-.04-.02c-1.7-.67-3.52-1.22-5.47-1.63-1.96-.41-4.05-.69-6.25-.82h-.06Z"/>
</svg>