<svg xmlns="http://www.w3.org/2000/svg" viewBox="0 0 38 33.25">
 <path d="m3.56,33.25h9.5c2,0,3.56-1.63,3.56-3.56v-9.5c0-2-1.56-3.56-3.56-3.56h-5.94v-4.75c0-2.67,2.15-4.75,4.75-4.75h.59c1.04,0,1.78-.82,1.78-1.78V1.78c0-1.04-.74-1.78-1.78-1.78h-.59C5.34,0,0,5.27,0,11.88v17.81c0,1.93,1.63,3.56,3.56,3.56Zm21.38,0h9.5c2,0,3.56-1.63,3.56-3.56v-9.5c0-2-1.56-3.56-3.56-3.56h-5.94v-4.75c0-2.67,2.15-4.75,4.75-4.75h.59c1.04,0,1.78-.82,1.78-1.78V1.78c0-1.04-.74-1.78-1.78-1.78h-.59c-6.53,0-11.88,5.27-11.88,11.88v17.81c0,1.93,1.63,3.56,3.56,3.56Z"/>
</svg>