<svg aria-hidden="true" style="position: absolute; width: 0; height: 0; overflow: hidden;" version="1.1"
 xmlns="http://www.w3.org/2000/svg"
 xmlns:xlink="http://www.w3.org/1999/xlink">
 <defs>
  <symbol id="icon-arow-next" viewBox="0 0 33 32">
   <path d="M13.985 2.276c-0.548 0.548-0.548 1.645 0 2.468l9.049 8.5h-21.388c-0.823 0-1.645 0.823-1.645 1.645v2.468c0 1.097 0.823 1.919 1.645 1.919h21.114l-8.775 8.226c-0.548 0.823-0.823 1.919 0 2.468l1.645 1.645c0.548 0.548 1.919 0.548 2.468 0l14.259-14.259c0.823-0.548 0.823-1.645 0-2.468l-14.259-14.259c-0.548-0.823-1.645-0.823-2.468 0l-1.645 1.645z"></path>
  </symbol>
  <symbol id="icon-behance" viewBox="0 0 32 32">
   <path d="M13.056 14.72c1.744-0.896 2.704-2.192 2.704-4.16 0-4-2.976-4.944-6.352-4.944h-9.408v19.92h9.616c3.664 0 7.024-1.744 7.024-5.792 0-2.48-1.184-4.336-3.6-5.008zM4.336 8.976h4.16c1.568 0 2.976 0.448 2.976 2.304 0 1.68-1.12 2.368-2.704 2.368h-4.448v-4.672zM9.056 22.144h-4.72v-5.52h4.784c1.968 0 3.152 0.848 3.152 2.864s-1.456 2.64-3.2 2.64zM29.2 8.576v-1.968h-8.048v1.968h8.048zM32.4 18.528c0-4.272-2.528-7.872-7.024-7.872s-7.424 3.312-7.424 7.648 2.864 7.6 7.424 7.6c3.424 0 5.68-1.568 6.752-4.832h-3.488c-0.4 1.232-1.968 1.856-3.152 1.856-2.304 0-3.536-1.344-3.536-3.664h10.4c0-0.224 0.064-0.512 0.064-0.736zM21.936 16.736c0.112-1.856 1.408-3.040 3.264-3.040 2.032 0 3.040 1.12 3.2 3.040h-6.464z"></path>
  </symbol>
  <symbol id="icon-comment" viewBox="0 0 32 32">
   <path d="M4.82 4.82c0.1-1.3 0.68-2.54 1.64-3.42 0.96-0.9 2.22-1.4 3.54-1.4h14.4c1 0 1.98 0.2 2.9 0.58s1.76 0.94 2.46 1.64c0.7 0.7 1.26 1.54 1.64 2.46s0.58 1.92 0.58 2.9v9.6c0 1.32-0.5 2.58-1.38 3.54-0.9 0.96-2.12 1.56-3.42 1.64-0.1 1.3-0.68 2.54-1.64 3.42s-2.22 1.38-3.54 1.38h-8.14l-5.86 4.4c-1.32 0.98-3.2 0.040-3.2-1.6v-2.82c-1.3-0.1-2.52-0.7-3.42-1.66-0.88-0.9-1.38-2.18-1.38-3.48v-12c0-1.32 0.5-2.58 1.38-3.54 0.9-0.96 2.12-1.56 3.42-1.64zM7.24 4.82h14.78c1.38 0 2.7 0.54 3.68 1.52s1.52 2.3 1.52 3.68v9.98c0.66-0.1 1.28-0.42 1.72-0.94 0.44-0.5 0.68-1.16 0.68-1.84v-9.62c0-1.38-0.54-2.7-1.52-3.68s-2.3-1.52-3.68-1.52h-14.4c-0.68 0-1.32 0.24-1.84 0.68s-0.84 1.060-0.94 1.72zM5.22 24.82h2v4.4l5.86-4.4h8.94c0.74 0 1.46-0.3 1.98-0.82s0.82-1.24 0.82-1.98v-12c0-0.74-0.3-1.46-0.82-1.98s-1.24-0.82-1.98-0.82h-16.82c-0.74 0-1.46 0.3-1.98 0.82s-0.82 1.24-0.82 1.98v12c0 1.54 1.26 2.8 2.8 2.8z"></path>
  </symbol>
  <symbol id="icon-email" viewBox="0 0 32 32">
   <path d="M32 7.131v19.826l-7.736-9.669-1.47 1.176 7.811 9.765h-29.21l7.811-9.765-1.47-1.176-7.736 9.669v-19.826l15.999 13.874 16.001-13.874zM31.999 3.76v0.877l-15.999 13.874-15.999-13.874v-0.877h31.998z"></path>
  </symbol>
  <symbol id="icon-instagram" viewBox="0 0 32 32">
   <path d="M16.030 7.741c-4.571 0-8.208 3.718-8.208 8.208s3.637 8.208 8.208 8.208 8.208-3.637 8.208-8.208-3.718-8.208-8.208-8.208zM16.030 21.313c-2.926 0-5.364-2.357-5.364-5.364s2.357-5.283 5.364-5.283 5.283 2.357 5.283 5.283-2.357 5.364-5.283 5.364zM26.453 7.457c0-1.077-0.853-1.93-1.93-1.93s-1.93 0.853-1.93 1.93 0.853 1.93 1.93 1.93 1.93-0.853 1.93-1.93zM31.878 9.387c-0.142-2.58-0.711-4.856-2.58-6.705-1.829-1.869-4.124-2.438-6.684-2.58-2.641-0.142-10.585-0.142-13.227 0-2.58 0.142-4.795 0.711-6.705 2.58-1.869 1.849-2.438 4.145-2.58 6.705-0.142 2.641-0.142 10.585 0 13.227 0.142 2.58 0.711 4.795 2.58 6.705 1.93 1.849 4.145 2.438 6.705 2.58 2.641 0.142 10.565 0.142 13.206 0 2.58-0.142 4.856-0.711 6.705-2.58 1.849-1.93 2.438-4.145 2.58-6.705 0.142-2.641 0.142-10.565 0-13.206zM28.444 25.377c-0.508 1.422-1.646 2.499-3.007 3.068-2.133 0.853-7.152 0.65-9.427 0.65s-7.355 0.224-9.427-0.65c-1.422-0.569-2.499-1.646-3.068-3.068-0.853-2.072-0.65-7.070-0.65-9.427s-0.224-7.294 0.65-9.427c0.569-1.361 1.646-2.438 3.068-3.007 2.072-0.853 7.070-0.65 9.427-0.65s7.294-0.224 9.427 0.65c1.361 0.508 2.438 1.646 3.007 3.007 0.853 2.133 0.65 7.152 0.65 9.427s0.224 7.355-0.65 9.427z"></path>
  </symbol>
  <symbol id="icon-linkedin" viewBox="0 0 32 32">
   <path d="M7.281 32v-21.023h-6.539v21.023h6.539zM3.977 8.164c2.109 0 3.797-1.758 3.797-3.867 0-2.039-1.688-3.727-3.797-3.727-2.039 0-3.727 1.688-3.727 3.727 0 2.109 1.688 3.867 3.727 3.867zM31.68 32h0.070v-11.531c0-5.625-1.266-9.984-7.875-9.984-3.164 0-5.273 1.758-6.188 3.375h-0.070v-2.883h-6.258v21.023h6.539v-10.406c0-2.742 0.492-5.344 3.867-5.344s3.445 3.094 3.445 5.555v10.195h6.469z"></path>
  </symbol>
  <symbol id="icon-location" viewBox="0 0 24 32">
   <path d="M12 0c-6.627 0-12 5.373-12 12 0 2.61 0.856 5.004 2.278 6.965 0.026 0.047 0.030 0.1 0.058 0.144l8 12c0.371 0.556 0.996 0.89 1.664 0.89s1.293-0.334 1.664-0.89l8-12c0.030-0.045 0.033-0.098 0.058-0.144 1.422-1.961 2.278-4.356 2.278-6.965 0-6.627-5.373-12-12-12zM12 16c-2.209 0-4-1.791-4-4s1.791-4 4-4 4 1.791 4 4-1.791 4-4 4z"></path>
  </symbol>
  <symbol id="icon-person" viewBox="0 0 32 32">
   <path d="M21.56 19c-1.82 0-2.62 1-5.56 1s-3.82-1-5.62-1c-4.62 0-8.38 3.82-8.38 8.44v1.56c0 1.68 1.32 3 3 3h22c1.62 0 3-1.32 3-3v-1.56c0-4.62-3.82-8.44-8.44-8.44zM27 29h-22v-1.56c0-3 2.38-5.44 5.38-5.44 0.94 0 2.38 1 5.62 1s4.62-1 5.56-1c3 0 5.44 2.44 5.44 5.44v1.56zM16 18c4.94 0 9-4 9-9s-4.060-9-9-9-9 4.060-9 9 4 9 9 9zM16 3c3.24 0 6 2.76 6 6s-2.76 6-6 6-6-2.68-6-6 2.68-6 6-6z"></path>
  </symbol>
  <symbol id="icon-phone" viewBox="0 0 32 32">
   <path d="M7.602 15.233c0.929 1.673 1.995 3.278 3.387 4.745 1.389 1.475 3.122 2.815 5.365 3.96 0.166 0.081 0.325 0.081 0.463 0.026 0.213-0.081 0.432-0.258 0.645-0.471 0.166-0.166 0.372-0.432 0.588-0.721 0.861-1.134 1.93-2.542 3.437-1.839 0.034 0.016 0.060 0.034 0.091 0.049l5.029 2.89c0.016 0.008 0.034 0.026 0.049 0.034 0.663 0.455 0.937 1.16 0.944 1.956 0 0.812-0.299 1.725-0.736 2.492-0.578 1.017-1.433 1.691-2.417 2.136-0.937 0.432-1.98 0.663-2.981 0.812-1.574 0.232-3.046 0.083-4.553-0.38-1.475-0.455-2.958-1.21-4.579-2.211l-0.12-0.075c-0.744-0.463-1.548-0.963-2.336-1.548-2.888-2.18-5.828-5.326-7.742-8.788-1.608-2.909-2.485-6.046-2.006-9.038 0.265-1.639 0.968-3.13 2.196-4.116 1.069-0.861 2.508-1.335 4.373-1.168 0.213 0.016 0.406 0.141 0.505 0.323l3.223 5.448c0.471 0.611 0.531 1.218 0.273 1.824-0.213 0.497-0.645 0.955-1.233 1.381-0.174 0.148-0.38 0.299-0.596 0.455-0.721 0.523-1.54 1.127-1.259 1.839l-0.010-0.016zM19.083 2.487c-0.133-0.010-0.258-0.047-0.369-0.104-0.117-0.060-0.219-0.14-0.302-0.237-0.083-0.099-0.148-0.211-0.19-0.336-0.036-0.12-0.052-0.247-0.042-0.38v-0.018c0.013-0.127 0.049-0.247 0.104-0.354l0.010-0.018c0.057-0.109 0.135-0.206 0.226-0.281 0.096-0.083 0.211-0.148 0.336-0.19 0.117-0.039 0.242-0.055 0.369-0.047h0.026c0.892 0.073 1.753 0.208 2.581 0.406 0.835 0.2 1.631 0.468 2.383 0.793 0.757 0.33 1.47 0.723 2.133 1.176 0.661 0.453 1.277 0.965 1.837 1.535 0.554 0.565 1.056 1.186 1.501 1.86 0.44 0.669 0.822 1.389 1.145 2.154 0.312 0.749 0.567 1.545 0.76 2.388 0.187 0.825 0.315 1.691 0.377 2.596v0.044s0.003 0.047 0.003 0.047c0 0.12-0.021 0.237-0.060 0.346-0.042 0.117-0.104 0.221-0.185 0.312s-0.177 0.166-0.286 0.224c-0.101 0.055-0.219 0.088-0.341 0.104l-0.052 0.005h-0.049c-0.122 0-0.239-0.018-0.349-0.060-0.114-0.042-0.221-0.104-0.312-0.185-0.096-0.083-0.177-0.187-0.234-0.304-0.055-0.112-0.091-0.239-0.099-0.369-0.055-0.804-0.164-1.569-0.328-2.289-0.164-0.736-0.385-1.431-0.656-2.084-0.271-0.656-0.596-1.27-0.968-1.837-0.377-0.575-0.801-1.101-1.27-1.579-0.474-0.481-0.991-0.913-1.553-1.296-0.565-0.385-1.173-0.718-1.824-0.999l-0.010-0.005c-0.645-0.278-1.329-0.507-2.050-0.679-0.718-0.164-1.473-0.281-2.263-0.341v0zM16.918 11.765c-0.133-0.013-0.258-0.055-0.367-0.112-0.114-0.062-0.216-0.146-0.294-0.245-0.075-0.094-0.135-0.203-0.174-0.32-0.036-0.109-0.052-0.226-0.047-0.346 0-0.034 0-0.060 0.008-0.091 0.018-0.125 0.060-0.242 0.117-0.343 0.060-0.107 0.14-0.2 0.234-0.276s0.203-0.135 0.32-0.174c0.109-0.034 0.226-0.052 0.349-0.047l0.091 0.008c0.388 0.042 0.76 0.109 1.119 0.2 0.364 0.094 0.71 0.213 1.035 0.354l0.010 0.005c0.33 0.146 0.64 0.315 0.929 0.51 0.291 0.198 0.562 0.419 0.812 0.669 0.247 0.247 0.471 0.515 0.669 0.806 0.198 0.289 0.369 0.598 0.518 0.931 0.143 0.325 0.263 0.671 0.356 1.035 0.091 0.356 0.156 0.736 0.198 1.137 0.013 0.133 0 0.263-0.034 0.382v0.010c-0.039 0.12-0.101 0.232-0.177 0.328v0.005c-0.083 0.099-0.182 0.18-0.297 0.242-0.109 0.060-0.234 0.099-0.367 0.112h-0.013c-0.127 0.010-0.252 0-0.369-0.036-0.125-0.036-0.239-0.099-0.338-0.18h-0.003c-0.099-0.081-0.182-0.18-0.245-0.297-0.060-0.109-0.099-0.234-0.112-0.364v-0.010c-0.029-0.284-0.075-0.554-0.14-0.812-0.065-0.263-0.148-0.507-0.247-0.734s-0.213-0.437-0.343-0.63c-0.133-0.195-0.278-0.372-0.44-0.533s-0.341-0.307-0.536-0.437-0.408-0.245-0.64-0.346l-0.013-0.005c-0.226-0.099-0.471-0.179-0.728-0.245-0.271-0.075-0.549-0.122-0.84-0.153v0zM17.959 7.285h-0.026l-0.034-0.005c-0.122-0.013-0.237-0.049-0.338-0.101-0.109-0.057-0.206-0.133-0.286-0.221v0c-0.083-0.094-0.148-0.2-0.19-0.32-0.039-0.112-0.060-0.232-0.057-0.359v-0.044l0.005-0.042c0.013-0.12 0.049-0.234 0.101-0.336 0.057-0.109 0.133-0.208 0.221-0.286 0.096-0.086 0.208-0.151 0.333-0.195 0.12-0.042 0.247-0.060 0.38-0.052 0.692 0.042 1.35 0.13 1.972 0.263 0.624 0.133 1.215 0.312 1.764 0.536 0.554 0.226 1.072 0.5 1.551 0.817 0.474 0.315 0.911 0.676 1.303 1.085 0.39 0.403 0.739 0.851 1.041 1.34 0.299 0.484 0.557 1.009 0.765 1.574 0.203 0.552 0.364 1.145 0.479 1.78 0.112 0.624 0.18 1.283 0.2 1.982v0.036c0.003 0.125-0.021 0.247-0.068 0.359-0.047 0.117-0.114 0.221-0.198 0.312-0.086 0.094-0.193 0.169-0.312 0.221-0.112 0.052-0.239 0.081-0.372 0.086h-0.044c-0.125 0-0.242-0.026-0.351-0.070-0.117-0.047-0.221-0.114-0.31-0.198-0.094-0.088-0.169-0.193-0.224-0.312-0.052-0.114-0.081-0.239-0.086-0.375-0.016-0.583-0.073-1.132-0.164-1.649-0.091-0.523-0.221-1.009-0.382-1.457s-0.359-0.859-0.588-1.236c-0.232-0.38-0.497-0.721-0.794-1.030-0.302-0.31-0.635-0.588-1.002-0.83-0.369-0.245-0.778-0.455-1.215-0.632l-0.010-0.005c-0.442-0.174-0.916-0.317-1.423-0.424-0.51-0.107-1.054-0.179-1.626-0.213h-0.016z"></path>
  </symbol>
  <symbol id="icon-quote" viewBox="0 0 32 32">
   <path d="M2.998 30.105h8c1.684 0 2.998-1.373 2.998-2.998v-8c0-1.684-1.314-2.998-2.998-2.998h-5.002v-4c0-2.248 1.811-4 4-4h0.497c0.876 0 1.499-0.691 1.499-1.499v-3.006c0-0.876-0.623-1.499-1.499-1.499h-0.497c-5.499 0-9.996 4.438-9.996 10.004v14.998c0 1.625 1.373 2.998 2.998 2.998zM21.002 30.105h8c1.684 0 2.998-1.373 2.998-2.998v-8c0-1.684-1.314-2.998-2.998-2.998h-5.002v-4c0-2.248 1.811-4 4-4h0.497c0.876 0 1.499-0.691 1.499-1.499v-3.006c0-0.876-0.623-1.499-1.499-1.499h-0.497c-5.499 0-10.004 4.438-10.004 10.004v14.998c0 1.625 1.373 2.998 2.998 2.998z"></path>
  </symbol>
  <symbol id="icon-view" viewBox="0 0 32 32">
   <path d="M31.936 15.376c-1.248-3.248-3.44-6.048-6.272-8.080-2.832-2.016-6.192-3.168-9.664-3.296-3.472 0.128-6.832 1.28-9.664 3.296s-5.024 4.832-6.272 8.080c-0.080 0.24-0.080 0.496 0 0.72 1.248 3.248 3.44 6.048 6.272 8.080 2.832 2.016 6.192 3.168 9.664 3.296 3.472-0.128 6.832-1.28 9.664-3.296s5.008-4.832 6.272-8.080c0.080-0.24 0.080-0.496 0-0.72zM16 25.344c-5.648 0-11.632-4.192-13.792-9.6 2.16-5.424 8.144-9.616 13.792-9.616s11.632 4.192 13.792 9.6c-2.16 5.408-8.144 9.6-13.792 9.6z"></path>
   <path d="M16 9.328c-1.264 0-2.496 0.368-3.552 1.072s-1.872 1.696-2.352 2.88c-0.48 1.168-0.608 2.464-0.368 3.696 0.24 1.248 0.864 2.384 1.744 3.28 0.896 0.896 2.032 1.504 3.28 1.744s2.528 0.128 3.696-0.368c1.168-0.48 2.176-1.312 2.88-2.352 0.704-1.056 1.072-2.288 1.072-3.552 0-1.696-0.672-3.328-1.872-4.528s-2.832-1.872-4.528-1.872zM16 20c-0.848 0-1.664-0.256-2.368-0.72s-1.248-1.136-1.568-1.92c-0.32-0.784-0.4-1.632-0.24-2.464s0.576-1.584 1.168-2.192c0.592-0.592 1.36-1.008 2.192-1.168s1.68-0.080 2.464 0.24 1.44 0.864 1.92 1.568c0.464 0.704 0.72 1.52 0.72 2.368 0 1.136-0.448 2.224-1.248 3.024s-1.888 1.248-3.024 1.248z"></path>
  </symbol>
 </defs>
</svg>
