<svg xmlns="http://www.w3.org/2000/svg" viewBox="0 0 20 14.67">
 <path d="m19.96,7.11c-.78-2.03-2.15-3.78-3.92-5.05C14.27.8,12.17.08,10,0c-2.17.08-4.27.8-6.04,2.06C2.19,3.32.82,5.08.04,7.11c-.05.15-.05.31,0,.45.78,2.03,2.15,3.78,3.92,5.05,1.77,1.26,3.87,1.98,6.04,2.06,2.17-.08,4.27-.8,6.04-2.06,1.77-1.26,3.13-3.02,3.92-5.05.05-.15.05-.31,0-.45Zm-9.96,6.23c-3.53,0-7.27-2.62-8.62-6C2.73,3.95,6.47,1.33,10,1.33s7.27,2.62,8.62,6c-1.35,3.38-5.09,6-8.62,6Z"/>
 <path d="m10,3.33c-.79,0-1.56.23-2.22.67-.66.44-1.17,1.06-1.47,1.8-.3.73-.38,1.54-.23,2.31.15.78.54,1.49,1.09,2.05.56.56,1.27.94,2.05,1.09.78.15,1.58.08,2.31-.23.73-.3,1.36-.82,1.8-1.47.44-.66.67-1.43.67-2.22,0-1.06-.42-2.08-1.17-2.83-.75-.75-1.77-1.17-2.83-1.17Zm0,6.67c-.53,0-1.04-.16-1.48-.45-.44-.29-.78-.71-.98-1.2-.2-.49-.25-1.02-.15-1.54s.36-.99.73-1.37c.37-.37.85-.63,1.37-.73.52-.1,1.05-.05,1.54.15s.9.54,1.2.98c.29.44.45.95.45,1.48,0,.71-.28,1.39-.78,1.89s-1.18.78-1.89.78Z"/>
</svg>